<?xml version="1.0" encoding="UTF-8" standalone="no"?>
<!-- Created with Inkscape (http://www.inkscape.org/) -->

<svg
   xmlns:dc="http://purl.org/dc/elements/1.1/"
   xmlns:cc="http://creativecommons.org/ns#"
   xmlns:rdf="http://www.w3.org/1999/02/22-rdf-syntax-ns#"
   xmlns:svg="http://www.w3.org/2000/svg"
   xmlns="http://www.w3.org/2000/svg"
   xmlns:sodipodi="http://sodipodi.sourceforge.net/DTD/sodipodi-0.dtd"
   xmlns:inkscape="http://www.inkscape.org/namespaces/inkscape"
   width="606.6051mm"
   height="216.40271mm"
   viewBox="0 0 606.6051 216.40271"
   version="1.1"
   id="svg8"
   inkscape:version="0.92.4 (5da689c313, 2019-01-14)"
   sodipodi:docname="Energy SOAR_dark.svg">
  <defs
     id="defs2" />
  <sodipodi:namedview
     id="base"
     pagecolor="#ffffff"
     bordercolor="#666666"
     borderopacity="1.0"
     inkscape:pageopacity="0.0"
     inkscape:pageshadow="2"
     inkscape:zoom="0.35"
     inkscape:cx="894.91165"
     inkscape:cy="137.52141"
     inkscape:document-units="mm"
     inkscape:current-layer="g1688"
     showgrid="false"
     inkscape:window-width="1920"
     inkscape:window-height="1057"
     inkscape:window-x="1358"
     inkscape:window-y="-8"
     inkscape:window-maximized="1" />
  <metadata
     id="metadata5">
    <rdf:RDF>
      <cc:Work
         rdf:about="">
        <dc:format>image/svg+xml</dc:format>
        <dc:type
           rdf:resource="http://purl.org/dc/dcmitype/StillImage" />
        <dc:title></dc:title>
      </cc:Work>
    </rdf:RDF>
  </metadata>
  <g
     inkscape:label="Layer 1"
     inkscape:groupmode="layer"
     id="layer1"
     transform="translate(263.23704,31.1835)">
    <g
       transform="matrix(0.26458333,0,0,0.26458333,-2022.2548,983.45002)"
       style="display:inline"
       id="g1688">
      <a
         transform="translate(11544.081,-1961.5754)"
         id="a2612-06-6"
         style="display:inline">
        <g
           transform="translate(-4876.1616,-2064.3)"
           style="display:inline"
           id="g106-43-3-9">
          <g
             id="g86-2-4-9">
            <g
               id="g52-3-5-8">
              <path
                 class="st2"
                 d="m 1745.58,594.61 c -16.96,-29.31 -1.94,-52.69 0,-55.71 l 37.79,-65.28 c 6.9,-11.99 6.9,-26.89 0,-38.88 l -37.79,-65.28 c -6.9,-12.11 -19.86,-19.5 -33.67,-19.5 h -75.46 c -5.45,0 -10.78,1.21 -15.62,3.39 -0.12,0 -0.12,0 -0.12,0 -7.39,3.27 -13.81,8.84 -17.93,16.11 l -37.67,65.28 c -0.73,1.33 -1.45,2.66 -2.06,4 0,0.12 0,0.12 0,0.24 -4.84,11.14 -4.12,23.98 2.06,34.64 l 38.15,66.13 c 0.61,0.85 12.84,18.77 4.84,43.12 -0.12,0.12 -0.12,0.24 -0.12,0.36 -1.21,3.63 -2.91,7.51 -5.21,11.38 l -37.67,65.4 c -0.73,1.33 -1.45,2.66 -2.06,4 0,0.12 0,0.12 0,0.24 -4.84,11.14 -4.12,23.98 2.06,34.64 l 37.67,65.28 c 6.9,12.11 19.86,19.5 33.67,19.5 h 75.46 c 13.81,0 26.77,-7.39 33.67,-19.5 l 37.79,-65.28 c 6.9,-11.99 6.9,-26.89 0,-38.88 z m 28.59,98.95 -37.67,65.4 c -5.09,8.72 -14.53,14.17 -24.59,14.17 h -75.46 c -9.45,0 -18.41,-4.84 -23.5,-12.72 -0.36,-0.48 -0.73,-0.97 -0.97,-1.45 l -37.79,-65.4 c -4.96,-8.72 -4.96,-19.5 0,-28.34 l 37.79,-65.28 c 20.71,-35.97 0.85,-65.04 0.24,-65.89 l -38.03,-65.65 c -4.96,-8.84 -4.96,-19.62 0,-28.34 l 37.79,-65.4 c 4.97,-8.72 14.41,-14.17 24.47,-14.17 h 75.46 c 5.45,0 10.78,1.57 15.26,4.6 3.75,2.3 7.03,5.57 9.33,9.57 l 37.67,65.4 c 5.09,8.72 5.09,19.5 0,28.34 l -37.55,64.92 c -2.06,3.15 -20.47,31.61 -0.12,66.61 l 37.67,65.28 c 5.08,8.85 5.08,19.63 0,28.35 z"
                 id="path34-4-9-6"
                 inkscape:connector-curvature="0"
                 style="fill:#e42020;fill-opacity:1" />
              <path
                 class="st2"
                 d="m 2169.25,661.22 -37.79,-65.28 c -6.9,-12.11 -19.86,-19.5 -33.67,-19.5 h -74.24 c -34.52,-0.61 -46.39,-26.28 -46.87,-27.49 l -38.15,-65.65 c -6.9,-11.99 -19.74,-19.5 -33.67,-19.5 h -75.46 c -5.45,0 -10.78,1.21 -15.62,3.39 h -0.12 c -7.39,3.27 -13.81,8.84 -17.93,16.11 l -37.67,65.28 c -0.73,1.21 -1.33,2.42 -1.82,3.63 -0.12,0.12 -0.12,0.24 -0.12,0.36 -4.97,11.14 -4.36,24.22 1.94,34.88 l 37.67,65.4 c 6.9,11.99 19.86,19.38 33.67,19.38 h 76.3 c 1.21,-0.12 29.07,-1.7 45.3,27.86 l 14.17,24.59 23.5,40.82 c 6.9,11.99 19.86,19.38 33.67,19.38 h 75.46 c 13.81,0 26.77,-7.39 33.67,-19.38 l 37.79,-65.4 c 6.89,-11.99 6.89,-26.88 -0.01,-38.88 z m -9.21,33.67 -37.67,65.28 c -5.09,8.72 -14.53,14.17 -24.59,14.17 h -75.46 c -9.45,0 -18.41,-4.85 -23.5,-12.72 -0.36,-0.48 -0.73,-0.97 -0.97,-1.45 l -24.59,-42.51 -13.08,-22.65 c -4.72,-8.6 -10.29,-14.9 -15.99,-19.5 -15.14,-12.72 -31.85,-13.93 -37.18,-13.93 -0.97,0 -1.57,0.12 -1.7,0.12 h -75.94 c -9.45,0 -18.41,-4.85 -23.5,-12.72 -0.36,-0.49 -0.73,-0.97 -0.97,-1.45 l -37.79,-65.28 c -4.97,-8.72 -4.97,-19.62 0,-28.34 l 37.79,-65.4 c 4.97,-8.72 14.41,-14.17 24.46,-14.17 h 75.46 c 5.45,0 10.78,1.57 15.26,4.6 3.75,2.3 7.02,5.57 9.33,9.57 l 37.43,65.04 0.12,-0.12 c 0.24,0.48 2.42,5.09 7.15,10.9 l 0.12,0.12 c 1.57,1.94 3.51,4 5.69,6.06 8.84,8.12 22.77,16.23 43.48,16.47 h 74.37 c 5.45,0 10.78,1.57 15.26,4.6 3.75,2.3 7.02,5.57 9.33,9.57 l 37.67,65.4 c 5.1,8.72 5.1,19.5 0.01,28.34 z"
                 id="path36-67-6-0"
                 inkscape:connector-curvature="0"
                 style="fill:#e42020;fill-opacity:1" />
              <path
                 class="st2"
                 d="m 1976.31,775.07 -23.5,-40.45 -14.29,-24.83 c -6.9,-11.99 -19.74,-19.5 -33.67,-19.5 h -75.46 c -5.45,0 -10.78,1.21 -15.62,3.39 h -0.12 c -7.39,3.27 -13.81,8.84 -17.93,16.11 l -37.67,65.28 c -7.75,13.2 -17.68,19.74 -26.4,22.77 -9.08,3.27 -16.96,2.91 -19.74,2.66 h -75.46 c -5.45,0 -10.78,1.21 -15.62,3.39 -0.12,0 -0.12,0 -0.12,0 -7.39,3.27 -13.81,8.72 -17.93,15.99 l -10.42,18.17 -27.25,47.11 c -0.73,1.33 -1.45,2.66 -2.06,4.12 0,0 0,0.12 0,0.24 -4.84,11.14 -4.12,24.1 2.06,34.64 l 37.67,65.28 c 6.9,11.99 19.86,19.5 33.67,19.5 h 75.46 c 13.81,0 26.77,-7.51 33.67,-19.5 l 37.79,-65.28 c 14.29,-24.83 45.78,-25.43 46.02,-25.43 h 75.46 c 13.93,0 26.77,-7.39 33.67,-19.38 l 37.79,-65.4 c 6.9,-11.99 6.9,-26.89 0,-38.88 z m -9.21,33.67 -37.67,65.28 c -5.09,8.72 -14.54,14.17 -24.59,14.17 h -75.46 c -0.36,0 -37.67,0.36 -55.23,30.64 l -37.67,65.28 c -5.09,8.84 -14.53,14.17 -24.59,14.17 h -75.46 c -9.45,0 -18.29,-4.72 -23.38,-12.59 -0.48,-0.48 -0.73,-0.97 -1.09,-1.57 l -37.79,-65.28 c -4.96,-8.72 -4.96,-19.62 0,-28.34 l 30.04,-51.84 7.75,-13.44 c 4.97,-8.72 14.41,-14.17 24.47,-14.17 h 74.97 c 6.06,0.61 36.94,1.82 55.71,-30.64 l 37.79,-65.28 c 4.97,-8.84 14.41,-14.17 24.46,-14.17 h 75.46 c 5.45,0 10.78,1.57 15.26,4.48 3.75,2.42 7.02,5.69 9.33,9.69 l 15.02,25.92 22.65,39.36 c 5.11,8.71 5.11,19.61 0.02,28.33 z"
                 id="path38-5-2-6"
                 inkscape:connector-curvature="0"
                 style="fill:#e42020;fill-opacity:1" />
              <path
                 class="st2"
                 d="m 2142.24,431.71 -31.85,-55.11 c -6.06,-10.66 -17.56,-17.32 -29.92,-17.32 h -63.71 c -5.09,0 -9.93,1.09 -14.41,3.27 0,0 0,0 -0.12,0 -6.42,3.03 -11.75,7.87 -15.38,14.05 L 1955,431.71 c -0.48,0.97 -0.97,1.94 -1.45,2.91 0,0.12 0,0.24 0,0.24 -4.6,10.05 -4,21.68 1.45,31.37 l 31.85,55.23 c 6.18,10.66 17.68,17.2 29.92,17.2 h 63.71 c 12.35,0 23.86,-6.54 29.92,-17.2 l 31.85,-55.23 c 6.17,-10.66 6.17,-23.86 -0.01,-34.52 z m -9.08,29.31 -31.85,55.11 c -4.36,7.39 -12.23,11.99 -20.83,11.99 h -63.71 c -8.24,0 -15.99,-4.36 -20.23,-11.39 l -0.12,-0.12 c -0.12,-0.12 -0.24,-0.36 -0.36,-0.48 l -31.85,-55.11 c -4.24,-7.39 -4.24,-16.59 0,-23.98 l 31.85,-55.23 c 4.24,-7.39 12.23,-11.87 20.71,-11.87 h 63.71 c 4.36,0 8.48,1.09 11.99,3.15 l 0.12,0.12 c 3.51,2.06 6.54,4.96 8.72,8.6 l 31.85,55.23 c 4.23,7.39 4.23,16.59 0,23.98 z"
                 id="path40-1-7-9"
                 inkscape:connector-curvature="0"
                 style="fill:#e42020;fill-opacity:1" />
              <path
                 class="st2"
                 d="m 1952.33,362.43 -21.56,-37.3 c -4.72,-8.24 -13.57,-13.45 -23.13,-13.45 h -43.12 c -4.24,0 -8.36,0.97 -11.99,2.91 -4.6,2.3 -8.6,5.94 -11.26,10.54 l -21.44,37.3 c -0.36,0.61 -0.73,1.21 -0.85,1.82 -4,7.87 -3.63,17.32 0.85,24.95 l 21.44,37.3 c 4.84,8.36 13.69,13.44 23.25,13.44 h 43.12 c 9.57,0 18.41,-5.09 23.13,-13.44 l 21.56,-37.3 c 4.84,-8.24 4.84,-18.54 0,-26.77 z m -9.21,21.44 -21.44,37.42 c -2.91,4.97 -8.36,7.99 -14.05,7.99 h -43.12 c -5.81,0 -11.14,-3.03 -14.05,-7.99 l -0.97,-1.57 -20.59,-35.85 c -2.79,-4.97 -2.79,-11.14 0,-16.11 l 21.56,-37.31 c 2.91,-5.09 8.24,-8.11 14.05,-8.11 h 43.12 c 2.3,0 4.48,0.48 6.54,1.45 3.15,1.33 5.81,3.63 7.51,6.66 l 21.44,37.31 c 2.91,4.96 2.91,11.14 0,16.11 z"
                 id="path42-6-1-9"
                 inkscape:connector-curvature="0"
                 style="fill:#e42020;fill-opacity:1" />
              <path
                 class="st2"
                 d="m 2269.29,537.2 -22.89,-39.73 c -4.96,-8.6 -14.17,-13.93 -24.1,-13.93 h -45.9 c -4.24,0 -8.24,0.97 -11.99,2.91 -0.12,0 -0.12,0 -0.12,0 -4.97,2.3 -9.2,6.18 -11.99,11.02 l -22.89,39.73 c -0.36,0.73 -0.73,1.45 -0.97,2.18 -0.12,0.12 -0.12,0.24 -0.12,0.36 -3.87,8.11 -3.39,17.56 1.09,25.19 l 22.89,39.73 c 4.97,8.6 14.29,13.93 24.1,13.93 h 45.9 c 9.93,0 19.14,-5.33 24.1,-13.93 l 22.89,-39.73 c 4.97,-8.47 4.97,-19.13 0,-27.73 z m -9.21,22.53 -22.89,39.6 c -3.03,5.33 -8.84,8.72 -14.9,8.72 h -45.9 c -6.06,0 -11.75,-3.39 -14.9,-8.72 l -0.73,-1.21 -22.16,-38.39 c -3.03,-5.33 -3.03,-11.99 0,-17.2 l 22.89,-39.73 c 3.15,-5.33 8.84,-8.6 14.9,-8.6 h 45.9 c 2.66,0 5.21,0.6 7.51,1.82 3.03,1.45 5.69,3.75 7.39,6.78 l 22.89,39.73 c 3.03,5.21 3.03,11.87 0,17.2 z"
                 id="path44-2-5-0"
                 inkscape:connector-curvature="0"
                 style="fill:#e42020;fill-opacity:1" />
              <path
                 class="st2"
                 d="m 2253.42,334.33 -17.08,-29.67 c -4.12,-7.27 -11.99,-11.75 -20.35,-11.75 h -34.15 c -4,0 -7.75,0.97 -11.14,2.78 -3.75,2.06 -7.02,5.09 -9.2,8.96 l -17.08,29.67 c -0.12,0.24 -0.36,0.61 -0.48,0.85 -3.75,7.15 -3.63,15.63 0.48,22.65 l 17.08,29.55 c 2.3,4.12 5.93,7.39 10.05,9.33 3.15,1.57 6.66,2.42 10.3,2.42 H 2216 c 8.36,0 16.23,-4.48 20.35,-11.75 l 17.08,-29.55 c 4.23,-7.26 4.23,-16.22 -0.01,-23.49 z m -9.08,18.17 -17.2,29.55 c -2.3,4 -6.54,6.54 -11.14,6.54 h -34.15 c -2.54,0 -4.97,-0.73 -6.9,-2.18 -1.7,-0.97 -3.15,-2.54 -4.24,-4.36 l -1.45,-2.54 -15.74,-27.01 c -2.18,-4 -2.18,-8.96 0,-12.84 l 17.2,-29.67 c 2.3,-4 6.54,-6.42 11.14,-6.42 H 2216 c 1.57,0 3.03,0.24 4.48,0.97 2.79,0.85 5.09,2.79 6.66,5.45 l 17.2,29.67 c 2.3,3.88 2.3,8.84 0,12.84 z"
                 id="path46-62-6-3"
                 inkscape:connector-curvature="0"
                 style="fill:#e42020;fill-opacity:1" />
              <path
                 class="st2"
                 d="m 2138.36,256.45 -14.54,-25.31 c -3.87,-6.66 -11.02,-10.78 -18.77,-10.78 h -29.19 c -3.63,0 -7.27,0.97 -10.3,2.66 -3.51,1.82 -6.42,4.6 -8.36,8.12 l -14.65,25.31 c -0.12,0.24 -0.24,0.49 -0.36,0.73 -3.51,6.54 -3.39,14.41 0.36,20.83 l 14.65,25.31 c 3.75,6.66 10.9,10.78 18.65,10.78 h 29.19 c 7.75,0 14.9,-4.12 18.77,-10.78 l 14.54,-25.31 c 3.89,-6.66 3.89,-14.9 0.01,-21.56 z m -9.2,16.23 -14.53,25.31 c -1.94,3.39 -5.69,5.57 -9.57,5.57 h -29.19 c -3.88,0 -7.51,-2.18 -9.57,-5.57 l -1.82,-3.15 -12.72,-22.16 c -2.06,-3.39 -2.06,-7.51 0,-10.9 l 14.53,-25.31 c 1.94,-3.39 5.69,-5.57 9.57,-5.57 h 29.19 c 1.09,0 2.18,0.12 3.15,0.48 2.66,0.85 4.96,2.67 6.42,5.09 l 14.53,25.31 c 2.07,3.39 2.07,7.51 0.01,10.9 z"
                 id="path48-6-3-7"
                 inkscape:connector-curvature="0"
                 style="fill:#e42020;fill-opacity:1" />
              <path
                 class="st2"
                 d="m 2239.5,216.97 -9.81,-16.96 c -2.3,-4.12 -6.3,-7.02 -10.78,-8.36 -1.57,-0.36 -3.15,-0.61 -4.84,-0.61 h -19.62 c -3.27,0 -6.42,0.85 -9.08,2.54 -2.66,1.45 -4.97,3.63 -6.54,6.42 l -9.69,16.71 -0.12,0.24 c -3.15,5.57 -3.27,12.48 0,18.05 l 9.81,17.08 c 3.27,5.57 9.2,8.96 15.62,8.96 h 19.62 c 6.42,0 12.47,-3.39 15.62,-8.96 L 2239.5,235 c 3.27,-5.56 3.27,-12.46 0,-18.03 z m -9.21,12.72 -9.81,17.08 c -1.33,2.3 -3.75,3.75 -6.42,3.75 h -19.62 c -2.66,0 -5.09,-1.45 -6.42,-3.75 l -2.66,-4.6 -7.15,-12.48 c -1.33,-2.3 -1.33,-5.09 0,-7.39 l 9.81,-16.96 c 1.33,-2.3 3.75,-3.75 6.42,-3.75 h 19.62 c 0.24,0 0.6,0 0.85,0.12 0.85,0 1.7,0.36 2.54,0.73 1.21,0.61 2.3,1.69 3.03,2.91 l 9.81,16.96 c 1.33,2.29 1.33,5.19 0,7.38 z"
                 id="path50-9-4-8"
                 inkscape:connector-curvature="0"
                 style="fill:#e42020;fill-opacity:1" />
            </g>
            <g
               id="g84-91-1-2">
              <g
                 id="g82-6-6-9">
                <g
                   id="g56-01-1-1">
                  <path
                     class="st3"
                     d="m 1765.93,657.11 c 4.97,8.72 4.97,19.62 0,28.34 l -37.79,65.28 c -4.97,8.84 -14.41,14.17 -24.47,14.17 h -75.45 c -5.57,0 -10.78,-1.57 -15.26,-4.48 -3.75,-2.3 -7.02,-5.69 -9.33,-9.69 l -37.67,-65.28 c -3.75,-6.42 -4.72,-14.17 -2.91,-21.2 0,-0.12 0,-0.12 0,-0.24 0.73,-2.42 1.7,-4.72 2.91,-6.9 l 37.67,-65.28 c 1.69,-2.91 3.15,-5.81 4.36,-8.6 0,-0.12 0,-0.24 0.12,-0.36 13.32,-32.46 -4.48,-57.41 -4.48,-57.41 l -37.67,-65.28 c -3.75,-6.42 -4.72,-14.17 -2.91,-21.2 0,-0.12 0,-0.12 0,-0.24 0.73,-2.42 1.7,-4.72 2.91,-6.9 l 37.67,-65.28 c 3.75,-6.54 9.93,-11.26 17.08,-13.2 0,0 0,0 0.12,0 2.3,-0.6 4.84,-0.97 7.39,-0.97 h 75.45 c 9.45,0 18.41,4.72 23.5,12.72 0.36,0.48 0.73,0.97 0.97,1.45 l 37.79,65.28 c 4.97,8.72 4.97,19.62 0,28.34 l -37.79,65.28 c 0,0 -21.2,29.67 0,66.37 z"
                     id="path54-2-2-1"
                     style="fill:#e42020;fill-opacity:1"
                     inkscape:connector-curvature="0" />
                </g>
                <path
                   class="st4"
                   d="m 2151.81,686.66 -37.79,65.28 c -4.96,8.84 -14.41,14.17 -24.46,14.17 h -75.46 c -5.45,0 -10.78,-1.57 -15.26,-4.48 -3.76,-2.42 -7.02,-5.69 -9.33,-9.69 l -18.65,-32.22 -19.01,-33.06 c -2.3,-4.24 -4.84,-7.87 -7.63,-11.14 -19.86,-24.47 -47.6,-22.04 -47.6,-22.04 h -75.46 c -5.45,0 -10.78,-1.57 -15.26,-4.48 -3.75,-2.42 -7.02,-5.69 -9.32,-9.69 l -37.67,-65.28 c -3.75,-6.54 -4.72,-14.29 -2.78,-21.44 0,-0.12 0,-0.24 0.12,-0.36 0.61,-2.18 1.45,-4.36 2.66,-6.54 l 37.67,-65.28 c 3.75,-6.54 10.05,-11.14 17.08,-13.2 h 0.12 c 2.42,-0.61 4.84,-0.97 7.39,-0.97 h 75.46 c 9.45,0 18.41,4.84 23.5,12.72 0.36,0.49 0.73,0.97 0.97,1.45 l 37.55,64.92 0.12,-0.12 c 0,0 4.36,10.05 15.38,19.14 l 0.12,0.12 c 8.96,7.27 22.16,14.05 40.82,14.41 h 74.49 c 9.45,0 18.41,4.85 23.5,12.72 0.36,0.48 0.73,0.97 0.97,1.45 l 37.79,65.28 c 4.93,8.71 4.93,19.61 -0.03,28.33 z"
                   id="path58-0-1-1"
                   style="fill:#f6c100;fill-opacity:1"
                   inkscape:connector-curvature="0" />
                <g
                   id="g62-4-5-8">
                  <path
                     class="st5"
                     d="m 1958.87,800.51 -37.79,65.28 c -4.97,8.84 -14.41,14.17 -24.47,14.17 h -75.46 c -0.61,0 -37.55,0.12 -55.23,30.76 L 1728.13,976 c -4.97,8.72 -14.41,14.17 -24.47,14.17 h -75.45 c -5.45,0 -10.66,-1.57 -15.14,-4.48 -3.88,-2.3 -7.15,-5.69 -9.45,-9.69 l -37.67,-65.28 c -3.75,-6.54 -4.72,-14.17 -2.91,-21.2 0,-0.12 0,-0.24 0,-0.24 0.73,-2.42 1.7,-4.72 2.91,-6.9 l 25.68,-44.45 11.99,-20.83 c 3.75,-6.54 9.93,-11.27 17.08,-13.2 0,0 0,0 0.12,0 2.3,-0.61 4.84,-0.97 7.39,-0.97 h 75.45 c 0,0 13.08,1.7 27.98,-5.09 9.33,-4.24 19.38,-11.99 27.25,-25.68 l 37.67,-65.28 c 3.75,-6.54 10.05,-11.14 17.08,-13.2 h 0.12 c 2.42,-0.61 4.84,-0.97 7.39,-0.97 h 75.46 c 9.45,0 18.41,4.84 23.5,12.72 0.36,0.48 0.73,0.97 0.97,1.45 l 20.83,35.97 16.96,29.31 c 4.96,8.85 4.96,19.63 0,28.35 z"
                     id="path60-0-56-4"
                     style="fill:#e42020;fill-opacity:1"
                     inkscape:connector-curvature="0" />
                </g>
                <g
                   id="g66-1-4-4">
                  <path
                     class="st5"
                     d="m 2124.8,452.78 -31.85,55.23 c -4.24,7.39 -12.11,11.87 -20.71,11.87 h -63.71 c -4.36,0 -8.48,-1.09 -11.99,-3.15 l -0.12,-0.12 c -3.51,-2.06 -6.54,-4.97 -8.6,-8.6 l -31.85,-55.23 c -3.15,-5.45 -4,-11.87 -2.42,-17.93 0,0 0,-0.12 0,-0.24 0.49,-1.94 1.33,-3.88 2.42,-5.81 l 31.85,-55.11 c 3.15,-5.57 8.36,-9.57 14.41,-11.14 0.12,0 0.12,0 0.12,0 2.06,-0.61 4.12,-0.85 6.18,-0.85 h 63.71 c 8.36,0 15.99,4.36 20.23,11.38 l 0.12,0.12 c 0.12,0.12 0.24,0.36 0.36,0.48 l 31.85,55.11 c 4.36,7.52 4.36,16.6 0,23.99 z"
                     id="path64-0-1-3"
                     style="fill:#e42020;fill-opacity:1"
                     inkscape:connector-curvature="0" />
                </g>
                <path
                   class="st4"
                   d="m 1934.89,375.75 -21.56,37.3 c -2.91,4.97 -8.24,8.12 -13.93,8.12 h -43.12 c -2.42,0 -4.72,-0.49 -6.78,-1.45 -3.03,-1.45 -5.57,-3.75 -7.27,-6.66 l -21.56,-37.3 c -2.06,-3.51 -2.67,-7.63 -1.7,-11.51 0.24,-1.7 0.85,-3.27 1.7,-4.72 l 21.56,-37.31 c 2.3,-3.88 6.06,-6.66 10.3,-7.63 1.21,-0.36 2.42,-0.48 3.75,-0.48 h 43.12 c 5.69,0 11.02,3.15 13.93,8.11 l 0.85,1.57 20.71,35.73 c 2.9,5.09 2.9,11.27 0,16.23 z"
                   id="path68-10-8-2"
                   style="fill:#f6c100;fill-opacity:1"
                   inkscape:connector-curvature="0" />
                <g
                   id="g72-7-6-2">
                  <path
                     class="st3"
                     d="m 2251.84,534.3 -22.91,-39.69 c -3.08,-5.33 -8.77,-8.62 -14.92,-8.62 h -45.83 c -6.16,0 -11.84,3.28 -14.92,8.62 l -22.91,39.69 c -3.08,5.33 -3.08,11.9 0,17.23 l 22.91,39.69 c 3.08,5.33 8.76,8.61 14.92,8.61 H 2214 c 6.16,0 11.84,-3.28 14.92,-8.61 l 22.91,-39.69 c 3.09,-5.34 3.09,-11.9 0.01,-17.23 z"
                     id="path70-9-3-7"
                     style="fill:#f6c100;fill-opacity:1"
                     inkscape:connector-curvature="0" />
                </g>
                <path
                   class="st4"
                   d="m 2235.98,344.26 -17.08,29.67 c -2.3,4 -6.54,6.42 -11.14,6.42 h -34.16 c -1.57,0 -3.03,-0.24 -4.36,-0.85 -2.91,-0.97 -5.33,-2.91 -6.78,-5.57 l -17.2,-29.67 c -1.57,-2.78 -2.06,-6.06 -1.33,-9.08 0.24,-1.33 0.73,-2.66 1.33,-3.75 l 17.2,-29.67 c 1.7,-3.15 4.72,-5.33 8.24,-6.06 0.97,-0.24 1.94,-0.36 2.91,-0.36 h 34.16 c 4.6,0 8.84,2.42 11.14,6.42 l 1.57,2.79 15.5,26.89 c 2.3,3.98 2.3,8.83 0,12.82 z"
                   id="path74-6-0-1"
                   style="fill:#e42020;fill-opacity:1"
                   inkscape:connector-curvature="0" />
                <g
                   id="g78-5-5-0">
                  <path
                     class="st5"
                     d="m 2120.92,264.57 -14.54,25.31 c -2.06,3.39 -5.69,5.45 -9.57,5.45 h -29.19 c -1.09,0 -2.18,-0.12 -3.15,-0.48 -2.66,-0.73 -4.97,-2.54 -6.42,-4.97 l -14.66,-25.31 c -1.33,-2.3 -1.7,-4.84 -1.21,-7.39 0.12,-1.21 0.6,-2.54 1.21,-3.63 l 14.66,-25.31 c 1.57,-2.79 4.36,-4.72 7.51,-5.21 0.61,-0.12 1.33,-0.24 2.06,-0.24 h 29.19 c 3.88,0 7.51,2.06 9.57,5.45 l 1.82,3.15 12.72,22.17 c 1.94,3.38 1.94,7.62 0,11.01 z"
                     id="path76-5-66-7"
                     style="fill:#f6c100;fill-opacity:1"
                     inkscape:connector-curvature="0" />
                </g>
                <path
                   class="st4"
                   d="m 2222.06,221.57 -9.81,16.96 c -0.24,0.36 -0.48,0.73 -0.85,1.09 -1.33,1.7 -3.39,2.67 -5.57,2.67 h -19.62 c -0.24,0 -0.61,0 -0.85,-0.12 -2.3,-0.24 -4.36,-1.57 -5.57,-3.63 l -9.81,-16.96 c -0.85,-1.45 -1.21,-3.15 -0.85,-4.84 0.12,-0.85 0.48,-1.7 0.85,-2.54 l 9.81,-17.08 c 1.21,-2.06 3.27,-3.27 5.57,-3.51 0.24,-0.12 0.61,-0.12 0.85,-0.12 h 19.62 c 2.66,0 5.09,1.33 6.42,3.63 l 2.66,4.6 2.06,3.63 5.09,8.84 c 1.33,2.29 1.33,5.08 0,7.38 z"
                   id="path80-35-1-3"
                   style="fill:#e42020;fill-opacity:1"
                   inkscape:connector-curvature="0" />
              </g>
            </g>
          </g>
        </g>
      </a>
      <g
         id="g104-2-9-6-0-3"
         class="st6"
         style="display:inline;opacity:0.15"
         transform="translate(6667.9192,-4025.8754)">
        <path
           style="fill:#f2f2f2"
           inkscape:connector-curvature="0"
           id="path88-4-7-7-6-9"
           d="m 1745.58,594.61 c -16.96,-29.31 -1.94,-52.69 0,-55.71 l 37.79,-65.28 c 6.9,-11.99 6.9,-26.89 0,-38.88 l -37.79,-65.28 c -6.9,-12.11 -19.86,-19.5 -33.67,-19.5 h -75.46 c -5.45,0 -10.78,1.21 -15.62,3.39 -0.12,0 -0.12,0 -0.12,0 -7.15,1.94 -13.32,6.66 -17.08,13.2 l -37.67,65.28 c -1.21,2.18 -2.18,4.48 -2.91,6.9 0,0.12 0,0.12 0,0.24 -4.84,11.14 -4.12,23.98 2.06,34.64 l 38.15,66.13 c 0.61,0.85 12.84,18.77 4.84,43.12 -0.12,0.12 -0.12,0.24 -0.12,0.36 -1.21,2.79 -2.67,5.69 -4.36,8.6 l -37.67,65.28 c -1.21,2.18 -2.18,4.48 -2.91,6.9 0,0.12 0,0.12 0,0.24 -4.84,11.14 -4.12,23.98 2.06,34.64 l 37.67,65.28 c 6.9,12.11 19.86,19.5 33.67,19.5 h 75.46 c 13.81,0 26.77,-7.39 33.67,-19.5 l 37.79,-65.28 c 6.9,-11.99 6.9,-26.89 0,-38.88 z m 28.59,98.95 -37.67,65.4 c -5.09,8.72 -14.53,14.17 -24.59,14.17 h -75.46 c -9.45,0 -18.41,-4.84 -23.5,-12.72 4.48,2.91 9.69,4.48 15.26,4.48 h 75.45 c 10.05,0 19.5,-5.33 24.47,-14.17 l 37.79,-65.28 c 4.97,-8.72 4.97,-19.62 0,-28.34 l -37.79,-65.28 c -21.2,-36.7 0,-66.37 0,-66.37 l 37.79,-65.28 c 4.97,-8.72 4.97,-19.62 0,-28.34 l -37.79,-65.28 c -0.24,-0.49 -0.61,-0.97 -0.97,-1.45 3.75,2.3 7.03,5.57 9.33,9.57 l 37.67,65.4 c 5.09,8.72 5.09,19.5 0,28.34 l -37.55,64.92 c -2.06,3.15 -20.47,31.61 -0.12,66.61 l 37.67,65.28 c 5.09,8.84 5.09,19.62 0.01,28.34 z"
           class="st7" />
        <path
           style="fill:#f2f2f2"
           inkscape:connector-curvature="0"
           id="path90-9-0-0-2-3"
           d="m 1920.11,705.43 c 0.36,0.48 0.73,0.97 0.97,1.45 l 20.83,35.97 c -84.78,63.22 -194.88,102.71 -337.67,95.8 -3.88,-0.12 -7.87,-0.36 -11.87,-0.61 -0.24,0 -0.48,0 -0.73,-0.12 l 11.99,-20.83 c 3.75,-6.54 9.93,-11.27 17.08,-13.2 0,0 0,0 0.12,0 4.84,-2.18 10.17,-3.39 15.62,-3.39 h 75.46 c 2.79,0.24 10.66,0.61 19.74,-2.66 9.33,-4.24 19.38,-11.99 27.25,-25.68 l 37.67,-65.28 c 3.75,-6.54 10.05,-11.14 17.08,-13.2 h 0.12 c 4.84,-2.18 10.17,-3.39 15.62,-3.39 h 75.46 c 13.93,0 26.77,7.51 33.67,19.5 l 14.29,24.83 c -2.66,2.18 -5.45,4.36 -8.36,6.42 l -15.02,-25.92 c -2.29,-4 -5.56,-7.27 -9.32,-9.69 z"
           class="st7" />
        <path
           style="fill:#f2f2f2"
           inkscape:connector-curvature="0"
           id="path92-6-7-3-5-2"
           d="m 1952.33,362.43 -21.56,-37.3 c -4.72,-8.24 -13.57,-13.45 -23.13,-13.45 h -43.12 c -4.24,0 -8.36,0.97 -11.99,2.91 -4.24,0.97 -7.99,3.75 -10.3,7.63 l -21.56,37.31 c -0.85,1.45 -1.45,3.03 -1.7,4.72 -4,7.87 -3.63,17.32 0.85,24.95 l 21.44,37.3 c 4.84,8.36 13.69,13.44 23.25,13.44 h 43.12 c 9.57,0 18.41,-5.09 23.13,-13.44 l 21.56,-37.3 c 4.85,-8.24 4.85,-18.54 0.01,-26.77 z m -9.21,21.44 -21.44,37.42 c -2.91,4.97 -8.36,7.99 -14.05,7.99 h -43.12 c -5.81,0 -11.14,-3.03 -14.05,-7.99 l -0.97,-1.57 c 2.06,0.97 4.36,1.45 6.78,1.45 h 43.12 c 5.69,0 11.02,-3.15 13.93,-8.12 l 21.56,-37.3 c 2.91,-4.97 2.91,-11.14 0,-16.23 l -20.71,-35.73 c 3.15,1.33 5.81,3.63 7.51,6.66 l 21.44,37.31 c 2.91,4.96 2.91,11.14 0,16.11 z"
           class="st7" />
        <path
           style="fill:#f2f2f2"
           inkscape:connector-curvature="0"
           id="path94-2-3-3-4-1"
           d="m 1976.67,548.95 -38.15,-65.65 c -6.9,-11.99 -19.74,-19.5 -33.67,-19.5 h -75.46 c -5.45,0 -10.78,1.21 -15.62,3.39 h -0.12 c -7.03,2.06 -13.32,6.66 -17.08,13.2 l -37.67,65.28 c -1.21,2.18 -2.06,4.36 -2.66,6.54 -0.12,0.12 -0.12,0.24 -0.12,0.36 -4.97,11.14 -4.36,24.22 1.94,34.88 l 37.67,65.4 c 6.9,11.99 19.86,19.38 33.67,19.38 h 76.3 c 1.21,-0.12 29.07,-1.7 45.3,27.86 l 14.17,24.59 c 1.94,-1.7 3.88,-3.27 5.69,-4.97 0.85,-0.73 1.7,-1.45 2.42,-2.06 43.84,-38.52 80.06,-83.33 109.97,-130.68 1.7,-2.66 3.39,-5.45 5.09,-8.12 0.48,-0.85 0.97,-1.57 1.57,-2.42 h -66.37 c -34.51,-0.59 -46.38,-26.27 -46.87,-27.48 z"
           class="st7" />
        <path
           style="fill:#f2f2f2"
           inkscape:connector-curvature="0"
           id="path96-9-0-4-41-2"
           d="m 2138.36,256.45 -14.54,-25.31 c -3.87,-6.66 -11.02,-10.78 -18.77,-10.78 h -29.19 c -3.63,0 -7.27,0.97 -10.3,2.66 -3.15,0.49 -5.93,2.42 -7.51,5.21 l -14.66,25.31 c -0.61,1.09 -1.09,2.42 -1.21,3.63 -3.51,6.54 -3.39,14.41 0.36,20.83 l 14.65,25.31 c 3.75,6.66 10.9,10.78 18.65,10.78 h 29.19 c 7.75,0 14.9,-4.12 18.77,-10.78 L 2138.34,278 c 3.9,-6.65 3.9,-14.89 0.02,-21.55 z m -9.2,16.23 -14.53,25.31 c -1.94,3.39 -5.69,5.57 -9.57,5.57 h -29.19 c -3.88,0 -7.51,-2.18 -9.57,-5.57 l -1.82,-3.15 c 0.97,0.36 2.06,0.48 3.15,0.48 h 29.19 c 3.88,0 7.51,-2.06 9.57,-5.45 l 14.54,-25.31 c 1.94,-3.39 1.94,-7.63 0,-11.02 l -12.72,-22.17 c 2.66,0.85 4.96,2.67 6.42,5.09 l 14.53,25.31 c 2.06,3.4 2.06,7.52 0,10.91 z"
           class="st7" />
        <path
           style="fill:#f2f2f2"
           inkscape:connector-curvature="0"
           id="path98-4-9-8-4-3"
           d="m 2142.24,431.71 -31.85,-55.11 c -6.06,-10.66 -17.56,-17.32 -29.92,-17.32 h -63.71 c -5.09,0 -9.93,1.09 -14.41,3.27 0,0 0,0 -0.12,0 -6.06,1.57 -11.26,5.57 -14.41,11.14 l -31.85,55.11 c -1.09,1.94 -1.94,3.87 -2.42,5.81 0,0.12 0,0.24 0,0.24 -4.6,10.05 -4,21.68 1.45,31.37 l 31.85,55.23 c 6.18,10.66 17.68,17.2 29.92,17.2 h 63.71 c 12.35,0 23.86,-6.54 29.92,-17.2 l 31.85,-55.23 c 6.17,-10.65 6.17,-23.85 -0.01,-34.51 z m -9.08,29.31 -31.85,55.11 c -4.36,7.39 -12.23,11.99 -20.83,11.99 h -63.71 c -8.24,0 -15.99,-4.36 -20.23,-11.39 3.51,2.06 7.63,3.15 11.99,3.15 h 63.71 c 8.6,0 16.47,-4.48 20.71,-11.87 l 31.85,-55.23 c 4.36,-7.39 4.36,-16.47 0,-23.98 l -31.85,-55.11 c -0.12,-0.12 -0.24,-0.36 -0.36,-0.48 3.51,2.06 6.54,4.96 8.72,8.6 l 31.85,55.23 c 4.23,7.39 4.23,16.59 0,23.98 z"
           class="st7" />
        <path
           style="fill:#f2f2f2"
           inkscape:connector-curvature="0"
           id="path100-8-7-8-5-1"
           d="m 2170.7,295.69 c -3.51,0.73 -6.54,2.91 -8.24,6.06 l -17.2,29.67 c -0.61,1.09 -1.09,2.42 -1.33,3.75 -3.75,7.15 -3.63,15.63 0.48,22.65 l 17.08,29.55 c 2.3,4.12 5.93,7.39 10.05,9.33 1.09,-3.39 2.3,-6.9 3.39,-10.29 0.61,-2.06 1.21,-4 1.94,-6.06 8.48,-26.89 15.38,-52.81 21.07,-76.79 0.73,-2.79 1.33,-5.57 1.94,-8.24 0.24,-0.85 0.48,-1.7 0.61,-2.42 h -18.65 c -3.99,0.01 -7.75,0.98 -11.14,2.79 z"
           class="st7" />
        <path
           style="fill:#f2f2f2"
           inkscape:connector-curvature="0"
           id="path102-3-6-2-0-6"
           d="m 2218.91,191.66 c -0.49,3.39 -0.97,7.02 -1.45,10.78 -0.12,0.97 -0.24,1.94 -0.49,2.91 -1.45,10.17 -3.27,21.68 -5.57,34.27 -1.33,1.7 -3.39,2.67 -5.57,2.67 h -19.62 c -0.24,0 -0.61,0 -0.85,-0.12 l 2.66,4.6 c 1.33,2.3 3.75,3.75 6.42,3.75 h 14.9 c -0.6,3.39 -1.33,6.9 -1.94,10.54 h -12.96 c -6.42,0 -12.36,-3.39 -15.62,-8.96 l -9.81,-17.08 c -3.27,-5.57 -3.15,-12.48 0,-18.05 l 0.12,-0.24 c 0.12,-0.85 0.48,-1.7 0.85,-2.54 l 9.81,-17.08 c 1.21,-2.06 3.27,-3.27 5.57,-3.51 2.66,-1.69 5.81,-2.54 9.08,-2.54 h 19.62 c 1.7,-0.01 3.27,0.23 4.85,0.6 z"
           class="st7" />
      </g>
      <g
         aria-label="ENERGY"
         style="font-style:normal;font-weight:normal;font-size:466.66665649px;line-height:1.25;font-family:sans-serif;letter-spacing:0px;word-spacing:0px;display:inline;fill:#4b4b4b;fill-opacity:1;stroke:none;stroke-width:8;stroke-miterlimit:4;stroke-dasharray:none;stroke-opacity:1"
         id="text1177-0">
        <path
           d="m 6810.6562,-3346.8818 h -152.6 q -9.8,0 -9.8,-9.8 v -280.4667 q 0,-9.8 9.8,-9.8 h 152.6 q 9.3333,0 9.3333,9.8 v 31.7333 q 0,9.8 -9.3333,9.8 h -97.5334 q -5.6,0 -5.6,5.1334 v 60.6666 q 0,5.1334 5.6,5.1334 h 79.8 q 9.8,0 9.8,9.8 v 31.7333 q 0,9.8 -9.8,9.8 h -79.8 q -5.6,0 -5.6,5.1333 v 64.8667 q 0,5.1333 5.6,5.1333 h 97.5334 q 9.3333,0 9.3333,9.8 v 31.7334 q 0,9.8 -9.3333,9.8 z"
           style="font-style:normal;font-variant:normal;font-weight:bold;font-stretch:normal;font-size:466.66665649px;line-height:0;font-family:Rajdhani;-inkscape-font-specification:'Rajdhani Bold';fill:#4b4b4b;fill-opacity:1;stroke:none;stroke-width:8;stroke-miterlimit:4;stroke-dasharray:none;stroke-opacity:1"
           id="path905" />
        <path
           d="m 6920.0968,-3346.8818 h -38.7333 q -9.8,0 -9.8,-9.8 v -280.4667 q 0,-9.8 9.8,-9.8 h 35 q 9.8,0 13.0666,6.5333 l 94.2667,176.8667 h 1.8667 v -173.6 q 0,-9.8 9.8,-9.8 h 38.7333 q 9.8,0 9.8,9.8 v 280.4667 q 0,9.8 -9.8,9.8 h -34.0667 q -10.2666,0 -14.9333,-9.3334 l -93.3333,-173.6 h -1.8667 v 173.1334 q 0,9.8 -9.8,9.8 z"
           style="font-style:normal;font-variant:normal;font-weight:bold;font-stretch:normal;font-size:466.66665649px;line-height:0;font-family:Rajdhani;-inkscape-font-specification:'Rajdhani Bold';fill:#4b4b4b;fill-opacity:1;stroke:none;stroke-width:8;stroke-miterlimit:4;stroke-dasharray:none;stroke-opacity:1"
           id="path907" />
        <path
           d="m 7307.401,-3346.8818 h -152.6 q -9.8,0 -9.8,-9.8 v -280.4667 q 0,-9.8 9.8,-9.8 h 152.6 q 9.3333,0 9.3333,9.8 v 31.7333 q 0,9.8 -9.3333,9.8 h -97.5334 q -5.6,0 -5.6,5.1334 v 60.6666 q 0,5.1334 5.6,5.1334 h 79.8 q 9.8,0 9.8,9.8 v 31.7333 q 0,9.8 -9.8,9.8 h -79.8 q -5.6,0 -5.6,5.1333 v 64.8667 q 0,5.1333 5.6,5.1333 h 97.5334 q 9.3333,0 9.3333,9.8 v 31.7334 q 0,9.8 -9.3333,9.8 z"
           style="font-style:normal;font-variant:normal;font-weight:bold;font-stretch:normal;font-size:466.66665649px;line-height:0;font-family:Rajdhani;-inkscape-font-specification:'Rajdhani Bold';fill:#4b4b4b;fill-opacity:1;stroke:none;stroke-width:8;stroke-miterlimit:4;stroke-dasharray:none;stroke-opacity:1"
           id="path909" />
        <path
           d="m 7417.7749,-3346.8818 h -39.6667 q -9.8,0 -9.8,-9.8 v -280.4667 q 0,-9.8 9.8,-9.8 h 111.0667 q 36.4,0 56.9333,20.0667 20.5334,20.0666 20.5334,56.4666 v 36.4 q 0,52.7334 -41.5334,70 v 1.8667 l 49.9334,104.0667 q 4.2,11.2 -7.9334,11.2 h -37.8 q -8.4,0 -12.1333,-1.8667 -3.7333,-1.8667 -6.0667,-7.9333 l -46.6666,-100.8 h -31.2667 q -5.6,0 -5.6,5.1333 v 95.6667 q 0,9.8 -9.8,9.8 z m 14.9333,-158.2 h 45.7334 q 14.9333,0 21.9333,-6.0667 7,-6.5333 7,-20.5333 v -36.4 q 0,-14.4667 -7,-21 -7,-6.5334 -21.9333,-6.5334 h -45.7334 q -5.1333,0 -5.1333,5.1334 v 80.2666 q 0,5.1334 5.1333,5.1334 z"
           style="font-style:normal;font-variant:normal;font-weight:bold;font-stretch:normal;font-size:466.66665649px;line-height:0;font-family:Rajdhani;-inkscape-font-specification:'Rajdhani Bold';fill:#4b4b4b;fill-opacity:1;stroke:none;stroke-width:8;stroke-miterlimit:4;stroke-dasharray:none;stroke-opacity:1"
           id="path911" />
        <path
           d="m 7745.3166,-3346.8818 h -49.4667 q -36.8667,0 -56.9333,-19.6 -20.0667,-19.6 -20.0667,-56.4667 v -147.9333 q 0,-36.8667 20.0667,-56.4667 20.0666,-19.6 56.9333,-19.6 h 49.4667 q 36.4,0 56.4666,20.0667 20.0667,19.6 20.0667,56 v 14 q 0,10.2666 -9.8,10.2666 h -39.6667 q -9.8,0 -9.8,-10.2666 v -11.2 q 0,-14.9334 -6.0666,-21 -6.0667,-6.5334 -21,-6.5334 h -30.3334 q -14.4666,0 -21,6.5334 -6.0666,6.0666 -6.0666,21 v 142.3333 q 0,14.9333 6.0666,21.4667 6.5334,6.0666 21,6.0666 h 30.3334 q 14.9333,0 21,-6.0666 6.0666,-6.5334 6.0666,-21.4667 v -29.4 q 0,-5.1333 -5.1333,-5.1333 h -28 q -9.8,0 -9.8,-9.8 v -31.7334 q 0,-9.8 9.8,-9.8 h 81.6667 q 10.7333,0 10.7333,10.7334 v 77.9333 q 0,36.4 -20.0667,56.4667 -20.0666,19.6 -56.4666,19.6 z"
           style="font-style:normal;font-variant:normal;font-weight:bold;font-stretch:normal;font-size:466.66665649px;line-height:0;font-family:Rajdhani;-inkscape-font-specification:'Rajdhani Bold';fill:#4b4b4b;fill-opacity:1;stroke:none;stroke-width:8;stroke-miterlimit:4;stroke-dasharray:none;stroke-opacity:1"
           id="path913" />
        <path
           d="m 7987.9468,-3346.8818 h -39.6667 q -9.8,0 -9.8,-9.8 v -99.8667 l -85.4,-180.1333 q -1.8667,-4.2 0,-7 2.3333,-3.2667 6.5333,-3.2667 h 49.4667 q 7.4667,0 11.2,9.8 l 46.6667,113.4 h 3.2666 l 45.7334,-113.4 q 3.2666,-9.8 11.2,-9.8 h 49.4666 q 4.6667,0 6.5334,2.8 2.3333,2.8 0,7.4667 l -85.4,180.1333 v 99.8667 q 0,9.8 -9.8,9.8 z"
           style="font-style:normal;font-variant:normal;font-weight:bold;font-stretch:normal;font-size:466.66665649px;line-height:0;font-family:Rajdhani;-inkscape-font-specification:'Rajdhani Bold';fill:#4b4b4b;fill-opacity:1;stroke:none;stroke-width:8;stroke-miterlimit:4;stroke-dasharray:none;stroke-opacity:1"
           id="path915" />
      </g>
      <g
         aria-label="SOAR"
         style="font-style:normal;font-variant:normal;font-weight:bold;font-stretch:normal;font-size:266.66665649px;line-height:1.25;font-family:Rajdhani;-inkscape-font-specification:'Rajdhani Bold';letter-spacing:16.47999954px;word-spacing:0px;display:inline;fill:#646464;fill-opacity:1;stroke:none;stroke-width:8;stroke-miterlimit:4;stroke-dasharray:none;stroke-opacity:1"
         id="text1413-9">
        <path
           d="m 7386.5745,-3149.5751 v -5.3334 q 0,-5.6 5.6,-5.6 h 22.6666 q 5.6,0 5.6,5.6 v 2.1334 q 0,10.1333 4,13.8666 4,3.7334 14.6667,3.7334 h 12.5333 q 10.4,0 14.4,-4 4.2667,-4 4.2667,-14.9334 v -3.2 q 0,-7.7333 -6.4,-11.7333 -6.1333,-4.2667 -15.4667,-5.0667 -9.3333,-0.8 -20.2666,-2.9333 -10.6667,-2.4 -20,-5.8667 -9.3334,-3.7333 -15.7334,-14.1333 -6.1333,-10.6667 -6.1333,-27.2 v -9.3333 q 0,-20.8 11.7333,-32.2667 11.7334,-11.4667 32.5334,-11.4667 h 26.6666 q 21.0667,0 32.8,11.4667 11.7334,11.4667 11.7334,32.2667 v 5.0666 q 0,5.6 -5.6,5.6 h -22.6667 q -5.6,0 -5.6,-5.6 v -1.6 q 0,-10.4 -4,-14.1333 -4,-3.7333 -14.6667,-3.7333 h -10.4 q -10.9333,0 -14.9333,4.2666 -3.7333,4 -3.7333,16 v 5.0667 q 0,12.5333 21.8666,14.4 22.6667,1.8667 40.2667,9.0667 9.3333,4 15.4667,14.4 6.4,10.1333 6.4,26.1333 v 9.0667 q 0,20.8 -11.7334,32.2666 -11.7333,11.4667 -32.5333,11.4667 h -29.0667 q -20.8,0 -32.5333,-11.4667 -11.7333,-11.4666 -11.7333,-32.2666 z"
           style="font-style:normal;font-variant:normal;font-weight:bold;font-stretch:normal;font-size:266.66665649px;font-family:Rajdhani;-inkscape-font-specification:'Rajdhani Bold';letter-spacing:16.47999954px;fill:#646464;fill-opacity:1;stroke:none;stroke-width:8;stroke-miterlimit:4;stroke-dasharray:none;stroke-opacity:1"
           id="path918" />
        <path
           d="m 7597.7378,-3135.1751 h 18.9333 q 8.5334,0 12,-3.4667 3.7334,-3.7333 3.7334,-12.2667 v -81.3333 q 0,-8.5333 -3.7334,-12 -3.4666,-3.7333 -12,-3.7333 h -18.9333 q -8.5333,0 -12,3.7333 -3.4667,3.4667 -3.4667,12 v 81.3333 q 0,8.5334 3.4667,12.2667 3.4667,3.4667 12,3.4667 z m 24.5333,29.3333 h -29.8666 q -21.0667,0 -32.5334,-11.2 -11.4666,-11.2 -11.4666,-32.2667 v -84.5333 q 0,-21.0667 11.4666,-32.2667 11.4667,-11.2 32.5334,-11.2 h 29.8666 q 21.0667,0 32.5334,11.2 11.4666,11.2 11.4666,32.2667 v 84.5333 q 0,21.0667 -11.4666,32.2667 -11.4667,11.2 -32.5334,11.2 z"
           style="font-style:normal;font-variant:normal;font-weight:bold;font-stretch:normal;font-size:266.66665649px;font-family:Rajdhani;-inkscape-font-specification:'Rajdhani Bold';letter-spacing:16.47999954px;fill:#646464;fill-opacity:1;stroke:none;stroke-width:8;stroke-miterlimit:4;stroke-dasharray:none;stroke-opacity:1"
           id="path920" />
        <path
           d="m 7732.8136,-3105.8418 h -25.6 q -4.8,0 -3.2,-5.6 l 42.1334,-160.2667 q 1.8666,-5.6 8,-5.6 h 35.4666 q 6.6667,0 8,5.6 l 42.1334,160.2667 q 1.6,5.6 -3.2,5.6 h -25.6 q -2.9334,0 -4,-1.0667 -1.0667,-1.3333 -1.6,-4.5333 l -7.4667,-29.3333 h -52 l -7.4667,29.3333 q -0.5333,3.2 -1.8666,4.5333 -1.0667,1.0667 -3.7334,1.0667 z m 38.6667,-139.2 -19.2,77.0667 h 39.4667 l -19.2,-77.0667 z"
           style="font-style:normal;font-variant:normal;font-weight:bold;font-stretch:normal;font-size:266.66665649px;font-family:Rajdhani;-inkscape-font-specification:'Rajdhani Bold';letter-spacing:16.47999954px;fill:#646464;fill-opacity:1;stroke:none;stroke-width:8;stroke-miterlimit:4;stroke-dasharray:none;stroke-opacity:1"
           id="path922" />
        <path
           d="m 7908.1311,-3105.8418 h -22.6666 q -5.6,0 -5.6,-5.6 v -160.2667 q 0,-5.6 5.6,-5.6 h 63.4666 q 20.8,0 32.5334,11.4667 11.7333,11.4667 11.7333,32.2667 v 20.8 q 0,30.1333 -23.7333,40 v 1.0666 l 28.5333,59.4667 q 2.4,6.4 -4.5333,6.4 h -21.6 q -4.8,0 -6.9334,-1.0667 -2.1333,-1.0666 -3.4666,-4.5333 l -26.6667,-57.6 h -17.8667 q -3.2,0 -3.2,2.9333 v 54.6667 q 0,5.6 -5.6,5.6 z m 8.5334,-90.4 h 26.1333 q 8.5333,0 12.5333,-3.4667 4,-3.7333 4,-11.7333 v -20.8 q 0,-8.2667 -4,-12 -4,-3.7333 -12.5333,-3.7333 h -26.1333 q -2.9334,0 -2.9334,2.9333 v 45.8667 q 0,2.9333 2.9334,2.9333 z"
           style="font-style:normal;font-variant:normal;font-weight:bold;font-stretch:normal;font-size:266.66665649px;font-family:Rajdhani;-inkscape-font-specification:'Rajdhani Bold';letter-spacing:16.47999954px;fill:#646464;fill-opacity:1;stroke:none;stroke-width:8;stroke-miterlimit:4;stroke-dasharray:none;stroke-opacity:1"
           id="path924" />
      </g>
    </g>
  </g>
</svg>
